# xmcd
#
# Track frame offsets:
#	150
#	9882
#	20202
#	33962
#	43877
#	54802
#	63885
#	79647
#	88997
#	98872
#	112225
#	123752
#
# Disc length: 1774 seconds
#
# Revision: 1
# Processed by: cddbd v1.4PL0 Copyright (c) Steve Scherf et al.
# Submitted via: audiograbber 1.81.02
#
DISCID=9206ec0c
DTITLE=Buck Owens - Dust On Mother's Bible
DYEAR=1900
DGENRE=Country
TTITLE0=Pray Every Day
TTITLE1=When Jesus Calls All His Children In
TTITLE2=I'll Go To Church Again With Momma
TTITLE3=Bring It To Jesus
TTITLE4=Jesus Saved Me
TTITLE5=Would You Be Ready
TTITLE6=Dust On Mother's Bible
TTITLE7=Satan's Gotta Get Along Without Me
TTITLE8=Where Would I Be Without Jesus
TTITLE9=Eternal Vacation
TTITLE10=It Was With Love 
TTITLE11=All The Way With Jesus
EXTD=
EXTT0=
EXTT1=
EXTT2=
EXTT3=
EXTT4=
EXTT5=
EXTT6=
EXTT7=
EXTT8=
EXTT9=
EXTT10=
EXTT11=
PLAYORDER=
